<?xml version="1.0" encoding="UTF-8" standalone="no"?>
<svg
   height="22px"
   version="1.1"
   viewBox="0 0 21 22"
   width="21px"
   id="svg1"
   sodipodi:docname="copy.svg"
   inkscape:version="1.3.2 (091e20e, 2023-11-25)"
   xmlns:inkscape="http://www.inkscape.org/namespaces/inkscape"
   xmlns:sodipodi="http://sodipodi.sourceforge.net/DTD/sodipodi-0.dtd"
   xmlns="http://www.w3.org/2000/svg"
   xmlns:svg="http://www.w3.org/2000/svg">
  <sodipodi:namedview
     id="namedview1"
     pagecolor="#ffffff"
     bordercolor="#cccccc"
     borderopacity="1"
     inkscape:showpageshadow="0"
     inkscape:pageopacity="1"
     inkscape:pagecheckerboard="0"
     inkscape:deskcolor="#d1d1d1"
     inkscape:zoom="21.52381"
     inkscape:cx="10.5"
     inkscape:cy="11.011062"
     inkscape:window-width="1392"
     inkscape:window-height="1097"
     inkscape:window-x="2386"
     inkscape:window-y="138"
     inkscape:window-maximized="0"
     inkscape:current-layer="svg1" />
  <title
     id="title1" />
  <desc
     id="desc1" />
  <defs
     id="defs1" />
  <g
     fill="none"
     fill-rule="evenodd"
     id="Page-1"
     stroke="none"
     stroke-width="1"
     style="fill:#2c85c7;fill-opacity:1">
    <g
       fill="#000000"
       id="Core"
       transform="translate(-86.000000, -127.000000)"
       style="fill:#2c85c7;fill-opacity:1">
      <g
         id="content-copy"
         transform="translate(86.500000, 127.000000)"
         style="fill:#2c85c7;fill-opacity:1">
        <path
           d="M14,0 L2,0 C0.9,0 0,0.9 0,2 L0,16 L2,16 L2,2 L14,2 L14,0 L14,0 Z M17,4 L6,4 C4.9,4 4,4.9 4,6 L4,20 C4,21.1 4.9,22 6,22 L17,22 C18.1,22 19,21.1 19,20 L19,6 C19,4.9 18.1,4 17,4 L17,4 Z M17,20 L6,20 L6,6 L17,6 L17,20 L17,20 Z"
           id="Shape"
           style="fill:#2c85c7;fill-opacity:1" />
      </g>
    </g>
  </g>
</svg>
