<?xml version="1.0" encoding="UTF-8" standalone="no"?>
<svg
   height="28"
   id="Layer_1"
   version="1.1"
   viewBox="0 0 28 28"
   width="28"
   xml:space="preserve"
   xmlns="http://www.w3.org/2000/svg"
   xmlns:svg="http://www.w3.org/2000/svg"><defs
     id="defs1" /><path
     d="m 26,14 c -1.219,0 -1.797,0.859 -2,1.766 C 23.269,19.03 20.167,24 14,24 8.477,24 4,19.522 4,14 4,8.478 8.477,4 14,4 c 2.24,0 4.295,0.753 5.96,2 H 18 c -1.104,0 -2,0.896 -2,2 0,1.104 0.896,2 2,2 h 6 c 1.104,0 2,-0.896 2,-2 V 2 C 26,0.896 25.104,0 24,0 22.896,0 22,0.896 22,2 V 2.518 C 19.733,0.932 16.977,0 14,0 6.268,0 0,6.268 0,14 0,21.732 6.268,28 14,28 23.979,28 28,18.5 28,16.125 28,14.672 26.938,14 26,14 Z"
     id="path1"
     style="fill:#2e85c7;fill-opacity:1" /></svg>
