<?xml version="1.0" encoding="UTF-8" standalone="no"?>
<!-- Created with Inkscape (http://www.inkscape.org/) -->

<svg
   version="1.1"
   id="svg1"
   width="112.03509"
   height="112.06579"
   viewBox="0 0 112.03508 112.06579"
   xmlns="http://www.w3.org/2000/svg"
   xmlns:svg="http://www.w3.org/2000/svg">
  <defs
     id="defs1" />
  <g
     id="g1"
     transform="translate(-0.62663614,-0.33383987)">
    <path
       style="fill:#2b85c6;fill-opacity:1"
       d="M 14.141593,110.85123 C 9.081612,109.0613 3.127759,102.76775 1.7291252,97.730562 0.23934016,92.365092 0.26820516,20.239144 1.7622952,14.857282 3.210778,9.6396859 9.927301,2.9231629 15.144897,1.4746799 c 5.479242,-1.52112004 77.51416,-1.52112004 82.9934,0 5.217603,1.448483 11.934123,8.165006 13.382603,13.3826021 1.52111,5.479242 1.52111,77.51416 0,82.9934 -1.44848,5.217598 -8.165,11.934118 -13.382603,13.382598 -6.3617,1.76611 -78.85616,1.43637 -83.9967,-0.38205 z m 34.229112,-34.725168 8.270888,-8.22792 8.270888,8.22792 c 4.548988,4.52535 8.696031,8.22792 9.215652,8.22792 1.28257,0 10.51346,-9.16773 10.51346,-10.44152 0,-0.55919 -3.70257,-4.7386 -8.22792,-9.28759 l -8.227924,-8.27089 8.227924,-8.270888 c 4.52535,-4.548988 8.22792,-8.696031 8.22792,-9.21565 0,-1.282572 -9.16773,-10.513462 -10.44152,-10.513462 -0.559188,0 -4.738604,3.702565 -9.287592,8.227922 l -8.270888,8.227922 -8.270888,-8.227922 c -4.548988,-4.525357 -8.696031,-8.227922 -9.21565,-8.227922 -1.282572,0 -10.513462,9.167726 -10.513462,10.441521 0,0.559187 3.702565,4.738603 8.227922,9.287591 l 8.227922,8.270888 -8.227922,8.27089 c -4.525357,4.54899 -8.227922,8.69603 -8.227922,9.21565 0,1.28257 9.167726,10.51346 10.441521,10.51346 0.559187,0 4.738603,-3.70257 9.287591,-8.22792 z"
       id="path1" />
  </g>
</svg>
